<svg width="389" height="687" viewBox="0 0 389 687" fill="none" xmlns="http://www.w3.org/2000/svg">
<path d="M261.238 533.124L197.346 573.894L204.957 542L204.957 540L204.958 516L261.238 533.124Z" fill="#558E47"/>
<path d="M285.423 531.403L236.957 559L223.465 511.924L285.423 531.403Z" fill="#558E47"/>
<path d="M307.353 528.276L268.371 548.887L264.554 517.662L307.353 528.276Z" fill="#558E47"/>
<circle cx="1" cy="1" r="1" transform="matrix(-0.97539 0.220487 0.220487 0.97539 225.931 515.896)" fill="#DF2E38"/>
<circle cx="1" cy="1" r="1" transform="matrix(-0.97539 0.220487 0.220487 0.97539 227.787 519.577)" fill="#FFE587" fill-opacity="0.2"/>
<circle cx="1" cy="1" r="1" transform="matrix(-0.97539 0.220487 0.220487 0.97539 227.787 519.577)" fill="#F6E172"/>
<circle cx="1" cy="1" r="1" transform="matrix(-0.97539 0.220487 0.220487 0.97539 229.645 523.258)" fill="#5D9C59"/>
<circle cx="1" cy="1" r="1" transform="matrix(-0.97539 0.220487 0.220487 0.97539 231.502 526.939)" fill="white"/>
<circle cx="1" cy="1" r="1" transform="matrix(-0.97539 0.220487 0.220487 0.97539 233.359 530.62)" fill="#DF2E38"/>
<circle cx="1" cy="1" r="1" transform="matrix(-0.97539 0.220487 0.220487 0.97539 235.217 534.301)" fill="#FFE587" fill-opacity="0.2"/>
<circle cx="1" cy="1" r="1" transform="matrix(-0.97539 0.220487 0.220487 0.97539 235.217 534.301)" fill="#F6E172"/>
<circle cx="1" cy="1" r="1" transform="matrix(-0.97539 0.220487 0.220487 0.97539 237.074 537.982)" fill="#5D9C59"/>
<circle cx="1" cy="1" r="1" transform="matrix(-0.97539 0.220487 0.220487 0.97539 238.932 541.663)" fill="white"/>
<circle cx="1" cy="1" r="1" transform="matrix(-0.97539 0.220487 0.220487 0.97539 240.789 545.344)" fill="#DF2E38"/>
<circle cx="1" cy="1" r="1" transform="matrix(-0.97539 0.220487 0.220487 0.97539 242.646 549.025)" fill="#FFE587" fill-opacity="0.2"/>
<circle cx="1" cy="1" r="1" transform="matrix(-0.97539 0.220487 0.220487 0.97539 242.646 549.025)" fill="#F6E172"/>
<circle cx="1" cy="1" r="1" transform="matrix(-0.97539 0.220487 0.220487 0.97539 244.503 552.706)" fill="#5D9C59"/>
<circle cx="1" cy="1" r="1" transform="matrix(0.965574 -0.260127 -0.260127 -0.965574 288.543 537.535)" fill="#DF2E38"/>
<circle cx="1" cy="1" r="1" transform="matrix(0.965574 -0.260127 -0.260127 -0.965574 286.537 533.933)" fill="#FFE587" fill-opacity="0.2"/>
<circle cx="1" cy="1" r="1" transform="matrix(0.965574 -0.260127 -0.260127 -0.965574 286.537 533.933)" fill="#F6E172"/>
<circle cx="1" cy="1" r="1" transform="matrix(0.965574 -0.260127 -0.260127 -0.965574 284.53 530.331)" fill="#5D9C59"/>
<circle cx="1" cy="1" r="1" transform="matrix(0.965574 -0.260127 -0.260127 -0.965574 282.524 526.728)" fill="white"/>
<circle cx="1" cy="1" r="1" transform="matrix(0.965574 -0.260127 -0.260127 -0.965574 280.519 523.126)" fill="#DF2E38"/>
<circle cx="1" cy="1" r="1" transform="matrix(0.965574 -0.260127 -0.260127 -0.965574 204.478 563.451)" fill="#DF2E38"/>
<circle cx="1" cy="1" r="1" transform="matrix(0.965574 -0.260127 -0.260127 -0.965574 206.478 567.451)" fill="#74BBE3"/>
<circle cx="1" cy="1" r="1" transform="matrix(0.965574 -0.260127 -0.260127 -0.965574 208.478 571.451)" fill="#FB6F88"/>
<circle cx="1" cy="1" r="1" transform="matrix(0.965574 -0.260127 -0.260127 -0.965574 208.478 571.451)" fill="#F1ECE4" fill-opacity="0.3"/>
<circle cx="1" cy="1" r="1" transform="matrix(0.965574 -0.260127 -0.260127 -0.965574 212.478 574.451)" fill="#FFE587" fill-opacity="0.2"/>
<circle cx="1" cy="1" r="1" transform="matrix(0.965574 -0.260127 -0.260127 -0.965574 212.478 574.451)" fill="#F6E172"/>
<circle cx="1" cy="1" r="1" transform="matrix(0.965574 -0.260127 -0.260127 -0.965574 217.478 576.451)" fill="#C7E8CA"/>
<circle cx="1" cy="1" r="1" transform="matrix(0.965574 -0.260127 -0.260127 -0.965574 220.478 574.451)" fill="#DF2E38"/>
<circle cx="1" cy="1" r="1" transform="matrix(0.965574 -0.260127 -0.260127 -0.965574 218.478 571.451)" fill="#74BBE3"/>
<circle cx="1" cy="1" r="1" transform="matrix(0.965574 -0.260127 -0.260127 -0.965574 214.478 572.451)" fill="#FB6F88"/>
<circle cx="1" cy="1" r="1" transform="matrix(0.965574 -0.260127 -0.260127 -0.965574 214.478 572.451)" fill="#F1ECE4" fill-opacity="0.3"/>
<circle cx="1" cy="1" r="1" transform="matrix(0.965574 -0.260127 -0.260127 -0.965574 214.478 579.451)" fill="#DF2E38"/>
<circle cx="1" cy="1" r="1" transform="matrix(0.965574 -0.260127 -0.260127 -0.965574 219.478 581.451)" fill="#74BBE3"/>
<circle cx="1" cy="1" r="1" transform="matrix(0.507278 0.861782 0.861782 -0.507278 223.814 581.871)" fill="#FB6F88"/>
<circle cx="1" cy="1" r="1" transform="matrix(0.507278 0.861782 0.861782 -0.507278 223.814 581.871)" fill="#F1ECE4" fill-opacity="0.3"/>
<circle cx="1" cy="1" r="1" transform="matrix(0.965574 -0.260127 -0.260127 -0.965574 229.478 582.451)" fill="#FFE587" fill-opacity="0.2"/>
<circle cx="1" cy="1" r="1" transform="matrix(0.965574 -0.260127 -0.260127 -0.965574 229.478 582.451)" fill="#F6E172"/>
<circle cx="1" cy="1" r="1" transform="matrix(0.965574 -0.260127 -0.260127 -0.965574 234.477 581.451)" fill="#DDF7E3"/>
<circle cx="1" cy="1" r="1" transform="matrix(0.965574 -0.260127 -0.260127 -0.965574 237.478 578.451)" fill="#DF2E38"/>
<circle cx="1" cy="1" r="1" transform="matrix(0.965574 -0.260127 -0.260127 -0.965574 240.479 575.451)" fill="#74BBE3"/>
<circle cx="1" cy="1" r="1" transform="matrix(0.965574 -0.260127 -0.260127 -0.965574 244.48 574.451)" fill="#FB6F88"/>
<circle cx="1" cy="1" r="1" transform="matrix(0.965574 -0.260127 -0.260127 -0.965574 244.48 574.451)" fill="#F1ECE4" fill-opacity="0.3"/>
<circle cx="1" cy="1" r="1" transform="matrix(0.965574 -0.260127 -0.260127 -0.965574 247.478 572.451)" fill="#FFE587" fill-opacity="0.2"/>
<circle cx="1" cy="1" r="1" transform="matrix(0.965574 -0.260127 -0.260127 -0.965574 247.478 572.451)" fill="#F6E172"/>
<circle cx="1" cy="1" r="1" transform="matrix(0.965574 -0.260127 -0.260127 -0.965574 251.478 573.451)" fill="#C7E8CA"/>
<circle cx="1" cy="1" r="1" transform="matrix(0.965574 -0.260127 -0.260127 -0.965574 255.478 574.451)" fill="#DF2E38"/>
<circle cx="1" cy="1" r="1" transform="matrix(0.965574 -0.260127 -0.260127 -0.965574 259.478 575.451)" fill="#74BBE3"/>
<circle cx="1" cy="1" r="1" transform="matrix(0.965574 -0.260127 -0.260127 -0.965574 263.06 544.418)" fill="#DF2E38"/>
<circle cx="1" cy="1" r="1" transform="matrix(0.965574 -0.260127 -0.260127 -0.965574 261.054 540.816)" fill="#FFE587" fill-opacity="0.2"/>
<circle cx="1" cy="1" r="1" transform="matrix(0.965574 -0.260127 -0.260127 -0.965574 261.054 540.816)" fill="#F6E172"/>
<circle cx="1" cy="1" r="1" transform="matrix(0.965574 -0.260127 -0.260127 -0.965574 259.047 537.214)" fill="#5D9C59"/>
<circle cx="1" cy="1" r="1" transform="matrix(0.965574 -0.260127 -0.260127 -0.965574 257.042 533.611)" fill="white"/>
<circle cx="1" cy="1" r="1" transform="matrix(0.965574 -0.260127 -0.260127 -0.965574 255.035 530.009)" fill="#DF2E38"/>
<circle cx="1" cy="1" r="1" transform="matrix(0.965574 -0.260127 -0.260127 -0.965574 253.029 526.407)" fill="#FFE587" fill-opacity="0.2"/>
<circle cx="1" cy="1" r="1" transform="matrix(0.965574 -0.260127 -0.260127 -0.965574 253.029 526.407)" fill="#F6E172"/>
<circle cx="1" cy="1" r="1" transform="matrix(0.965574 -0.260127 -0.260127 -0.965574 251.023 522.805)" fill="#5D9C59"/>
<circle cx="1" cy="1" r="1" transform="matrix(-0.996867 0.0790998 0.0790998 0.996867 206.578 522.817)" fill="#5D9C59"/>
<circle cx="1" cy="1" r="1" transform="matrix(-0.996867 0.0790998 0.0790998 0.996867 207.891 526.725)" fill="white"/>
<circle cx="1" cy="1" r="1" transform="matrix(-0.996867 0.0790998 0.0790998 0.996867 209.204 530.633)" fill="#DF2E38"/>
<circle cx="1" cy="1" r="1" transform="matrix(-0.996867 0.0790998 0.0790998 0.996867 210.518 534.542)" fill="#FFE587" fill-opacity="0.2"/>
<circle cx="1" cy="1" r="1" transform="matrix(-0.996867 0.0790998 0.0790998 0.996867 210.518 534.542)" fill="#F6E172"/>
<circle cx="1" cy="1" r="1" transform="matrix(-0.996867 0.0790998 0.0790998 0.996867 211.831 538.45)" fill="#5D9C59"/>
<circle cx="1" cy="1" r="1" transform="matrix(-0.996867 0.0790998 0.0790998 0.996867 213.145 542.358)" fill="white"/>
<circle cx="1" cy="1" r="1" transform="matrix(-0.996867 0.0790998 0.0790998 0.996867 214.457 546.267)" fill="#DF2E38"/>
<circle cx="1" cy="1" r="1" transform="matrix(-0.996867 0.0790998 0.0790998 0.996867 215.771 550.175)" fill="#FFE587" fill-opacity="0.2"/>
<circle cx="1" cy="1" r="1" transform="matrix(-0.996867 0.0790998 0.0790998 0.996867 215.771 550.175)" fill="#F6E172"/>
<circle cx="1" cy="1" r="1" transform="matrix(-0.996867 0.0790998 0.0790998 0.996867 217.084 554.083)" fill="#5D9C59"/>
<circle cx="1" cy="1" r="1" transform="matrix(-0.996867 0.0790998 0.0790998 0.996867 218.951 558)" fill="#5D9C59"/>
<rect x="88.957" y="542" width="87" height="33" fill="url(#paint0_radial_315_2682)"/>
<rect x="88.957" y="507" width="87" height="33" fill="url(#paint1_radial_315_2682)"/>
<rect x="220.957" y="560.71" width="70" height="16" transform="rotate(-9.63037 220.957 560.71)" fill="url(#paint2_radial_315_2682)"/>
<path d="M177.957 507H204.957V540H177.957V507Z" fill="url(#paint3_radial_315_2682)"/>
<rect x="177.957" y="542" width="27" height="33" fill="url(#paint4_radial_315_2682)"/>
<path d="M114.994 530.496H116.242V540H96.9944V537.456C96.9944 535.248 97.3624 533.408 98.0984 531.936C98.8344 530.464 99.7784 529.216 100.93 528.192C102.114 527.136 103.378 526.176 104.722 525.312C105.874 524.544 106.994 523.76 108.082 522.96C109.17 522.16 110.066 521.184 110.77 520.032C111.506 518.848 111.874 517.376 111.874 515.616C111.874 513.184 111.394 511.376 110.434 510.192C109.506 509.008 108.194 508.416 106.498 508.416C104.29 508.416 102.754 509.216 101.89 510.816C101.058 512.384 100.802 514.64 101.122 517.584L96.9464 516.816C96.6264 515.088 96.7544 513.472 97.3304 511.968C97.9384 510.464 99.0104 509.248 100.546 508.32C102.082 507.36 104.082 506.88 106.546 506.88C108.914 506.88 110.834 507.296 112.306 508.128C113.778 508.96 114.85 510.048 115.522 511.392C116.194 512.736 116.53 514.176 116.53 515.712C116.53 517.472 116.194 518.944 115.522 520.128C114.85 521.312 113.97 522.288 112.882 523.056C111.794 523.824 110.61 524.512 109.33 525.12C108.05 525.696 106.802 526.304 105.586 526.944C104.402 527.552 103.314 528.272 102.322 529.104C101.362 529.936 100.562 530.944 99.9224 532.128C99.3144 533.28 98.9464 534.704 98.8184 536.4H111.202C112.322 536.4 112.994 536.336 113.218 536.208C113.474 536.048 113.666 535.696 113.794 535.152L114.994 530.496ZM134.581 536.112V531.552H120.709V530.016C122.341 528.288 123.749 526.608 124.933 524.976C126.117 523.312 127.141 521.6 128.005 519.84C128.869 518.08 129.621 516.192 130.261 514.176C130.933 512.128 131.541 509.856 132.085 507.36H137.173C135.893 511.872 134.021 515.92 131.557 519.504C129.093 523.088 126.149 526.592 122.725 530.016H134.581V522.48L138.757 521.808V530.016H142.453V531.552H138.757V536.112C138.757 537.232 138.805 537.888 138.901 538.08C138.997 538.272 139.301 538.4 139.813 538.464L142.453 538.752V540H129.925V538.752L133.525 538.464C134.037 538.432 134.341 538.32 134.437 538.128C134.533 537.904 134.581 537.232 134.581 536.112Z" fill="black"/>
<path d="M176.831 216.202L106.418 250.909L82.9573 186.456L173.95 164.258L176.831 216.202Z" fill="url(#paint5_radial_315_2682)"/>
<path d="M143.446 251.553C143.267 254.361 141.154 256.665 138.371 257.083L137.802 255.34C135.514 248.328 135.89 240.718 138.857 233.965L139.67 232.117L144.663 232.377L143.446 251.553Z" fill="url(#paint6_radial_315_2682)"/>
<path d="M159.266 249.263C157.309 249.279 155.418 248.563 153.963 247.254L139 233.794L142.755 230.491L159.266 249.263Z" fill="#D80713"/>
<path d="M120.923 229.697L121.811 229.402L124.056 236.167L110.355 240.714L109.754 238.903C109.232 237.331 109.059 235.935 109.236 234.713C109.412 233.491 109.789 232.38 110.367 231.379C110.961 230.348 111.634 229.366 112.386 228.433C113.025 227.614 113.637 226.792 114.222 225.965C114.808 225.139 115.215 224.232 115.444 223.246C115.688 222.229 115.603 221.095 115.187 219.842C114.612 218.111 113.844 216.937 112.881 216.321C111.94 215.697 110.867 215.586 109.659 215.987C108.088 216.508 107.183 217.44 106.946 218.783C106.724 220.096 107.075 221.762 107.998 223.782L104.844 224.222C104.208 223.068 103.918 221.887 103.972 220.681C104.05 219.466 104.526 218.347 105.4 217.324C106.266 216.278 107.577 215.464 109.331 214.882C111.016 214.322 112.481 214.165 113.726 214.41C114.97 214.654 115.99 215.175 116.786 215.973C117.582 216.771 118.161 217.717 118.524 218.81C118.94 220.063 119.048 221.19 118.849 222.192C118.651 223.193 118.255 224.096 117.662 224.9C117.069 225.703 116.388 226.473 115.621 227.208C114.846 227.92 114.101 228.648 113.387 229.391C112.687 230.103 112.083 230.873 111.573 231.699C111.087 232.518 110.755 233.425 110.579 234.419C110.419 235.382 110.493 236.483 110.803 237.721L119.618 234.795C120.415 234.531 120.878 234.326 121.008 234.182C121.152 234.008 121.206 233.712 121.168 233.295L120.923 229.697ZM130.077 221.501L129.155 221.807L128.792 220.713L129.715 220.407C131.605 219.78 132.768 218.863 133.202 217.657C133.659 216.443 133.638 215.085 133.139 213.581C132.61 211.987 131.879 210.889 130.946 210.288C130.014 209.687 128.944 209.587 127.736 209.988C126.165 210.509 125.26 211.442 125.023 212.785C124.801 214.097 125.152 215.764 126.075 217.784L122.921 218.224C122.308 217.062 122.029 215.877 122.083 214.671C122.161 213.456 122.625 212.341 123.477 211.326C124.343 210.279 125.654 209.465 127.408 208.883C129.093 208.324 130.543 208.159 131.757 208.388C132.986 208.587 133.991 209.063 134.772 209.815C135.545 210.545 136.106 211.434 136.453 212.481C136.982 214.076 136.912 215.503 136.243 216.762C135.596 218.013 134.414 219.101 132.698 220.024C134.732 219.678 136.432 219.847 137.797 220.532C139.185 221.209 140.17 222.425 140.752 224.179C141.122 225.295 141.189 226.411 140.953 227.526C140.739 228.634 140.168 229.658 139.241 230.597C138.329 231.507 136.996 232.253 135.242 232.835C133.579 233.387 131.993 233.483 130.483 233.124C128.996 232.758 127.658 231.66 126.469 229.829L128.417 228.5C129.015 229.692 129.659 230.566 130.349 231.121C131.062 231.668 131.786 231.984 132.522 232.068C133.273 232.123 134.013 232.029 134.742 231.787C137.658 230.819 138.557 228.65 137.438 225.279C136.894 223.639 136.038 222.431 134.87 221.655C133.702 220.879 132.105 220.828 130.077 221.501Z" fill="black"/>
<path d="M92.5332 330L55.3673 337.758V370.69H84.0792L92.5332 330Z" fill="url(#paint7_radial_315_2682)"/>
<path d="M53.8691 338.01L26.9559 339.12L34.1648 367.2L53.8691 370.69V338.01Z" fill="url(#paint8_radial_315_2682)"/>
<path d="M53.7832 372.476L34.4083 368.89V400.187H53.7832V372.476Z" fill="url(#paint9_radial_315_2682)"/>
<rect width="29.0624" height="27.572" transform="matrix(-1 0 0 1 84.3359 372.476)" fill="url(#paint10_radial_315_2682)"/>
<path d="M51.2468 390.872H52.1828V398H37.7468V396.092C37.7468 394.436 38.0228 393.056 38.5748 391.952C39.1268 390.848 39.8348 389.912 40.6988 389.144C41.5868 388.352 42.5348 387.632 43.5428 386.984C44.4068 386.408 45.2468 385.82 46.0628 385.22C46.8788 384.62 47.5508 383.888 48.0788 383.024C48.6308 382.136 48.9068 381.032 48.9068 379.712C48.9068 377.888 48.5468 376.532 47.8268 375.644C47.1308 374.756 46.1468 374.312 44.8748 374.312C43.2188 374.312 42.0668 374.912 41.4188 376.112C40.7948 377.288 40.6028 378.98 40.8428 381.188L37.7108 380.612C37.4708 379.316 37.5668 378.104 37.9988 376.976C38.4548 375.848 39.2588 374.936 40.4108 374.24C41.5628 373.52 43.0628 373.16 44.9108 373.16C46.6868 373.16 48.1268 373.472 49.2308 374.096C50.3348 374.72 51.1388 375.536 51.6428 376.544C52.1468 377.552 52.3988 378.632 52.3988 379.784C52.3988 381.104 52.1468 382.208 51.6428 383.096C51.1388 383.984 50.4788 384.716 49.6628 385.292C48.8468 385.868 47.9588 386.384 46.9988 386.84C46.0388 387.272 45.1028 387.728 44.1908 388.208C43.3028 388.664 42.4868 389.204 41.7428 389.828C41.0228 390.452 40.4228 391.208 39.9428 392.096C39.4868 392.96 39.2108 394.028 39.1148 395.3H48.4028C49.2428 395.3 49.7468 395.252 49.9148 395.156C50.1068 395.036 50.2508 394.772 50.3468 394.364L51.2468 390.872ZM70.653 390.872H71.589V398H57.153V396.092C57.153 394.436 57.429 393.056 57.981 391.952C58.533 390.848 59.241 389.912 60.105 389.144C60.993 388.352 61.941 387.632 62.949 386.984C63.813 386.408 64.653 385.82 65.469 385.22C66.285 384.62 66.957 383.888 67.485 383.024C68.037 382.136 68.313 381.032 68.313 379.712C68.313 377.888 67.953 376.532 67.233 375.644C66.537 374.756 65.553 374.312 64.281 374.312C62.625 374.312 61.473 374.912 60.825 376.112C60.201 377.288 60.009 378.98 60.249 381.188L57.117 380.612C56.877 379.316 56.973 378.104 57.405 376.976C57.861 375.848 58.665 374.936 59.817 374.24C60.969 373.52 62.469 373.16 64.317 373.16C66.093 373.16 67.533 373.472 68.637 374.096C69.741 374.72 70.545 375.536 71.049 376.544C71.553 377.552 71.805 378.632 71.805 379.784C71.805 381.104 71.553 382.208 71.049 383.096C70.545 383.984 69.885 384.716 69.069 385.292C68.253 385.868 67.365 386.384 66.405 386.84C65.445 387.272 64.509 387.728 63.597 388.208C62.709 388.664 61.893 389.204 61.149 389.828C60.429 390.452 59.829 391.208 59.349 392.096C58.893 392.96 58.617 394.028 58.521 395.3H67.809C68.649 395.3 69.153 395.252 69.321 395.156C69.513 395.036 69.657 394.772 69.753 394.364L70.653 390.872Z" fill="black"/>
<circle cx="338.638" cy="472.681" r="25.5" transform="rotate(0.407638 338.638 472.681)" fill="url(#paint11_radial_315_2682)"/>
<path d="M363.114 462.303L367.071 462.331C372.777 462.372 377.37 467.03 377.329 472.736C377.289 478.442 372.63 483.035 366.924 482.995L362.967 482.966L364.426 478.691C364.947 477.165 365.218 475.565 365.23 473.953L365.244 471.953C365.254 470.52 365.059 469.093 364.665 467.716L363.114 462.303Z" fill="url(#paint12_radial_315_2682)"/>
<path d="M387.768 471.492C387.748 474.37 385.123 476.848 381.696 476.823C378.268 476.799 375.679 474.284 375.7 471.406C375.72 468.528 378.345 466.049 381.772 466.074C385.2 466.098 387.789 468.613 387.768 471.492Z" stroke="url(#paint13_radial_315_2682)" stroke-width="2"/>
<path d="M339.446 479.657L340.382 479.662L340.34 486.79L325.904 486.705L325.915 484.797C325.925 483.141 326.209 481.763 326.768 480.662C327.326 479.561 328.04 478.629 328.908 477.867C329.801 477.08 330.753 476.365 331.765 475.723C332.632 475.153 333.476 474.57 334.295 473.974C335.115 473.379 335.791 472.651 336.324 471.79C336.882 470.906 337.164 469.803 337.172 468.483C337.183 466.659 336.831 465.301 336.116 464.409C335.425 463.517 334.444 463.067 333.172 463.06C331.516 463.05 330.36 463.643 329.705 464.839C329.074 466.011 328.872 467.702 329.099 469.912L325.971 469.317C325.738 468.02 325.842 466.808 326.28 465.683C326.743 464.558 327.552 463.65 328.708 462.961C329.865 462.248 331.367 461.897 333.215 461.908C334.991 461.918 336.429 462.239 337.529 462.869C338.629 463.5 339.429 464.321 339.927 465.332C340.425 466.343 340.67 467.424 340.663 468.576C340.656 469.896 340.397 470.998 339.888 471.883C339.379 472.768 338.714 473.497 337.895 474.068C337.076 474.639 336.185 475.15 335.222 475.6C334.259 476.026 333.321 476.477 332.406 476.951C331.515 477.402 330.696 477.937 329.948 478.557C329.225 479.176 328.62 479.929 328.135 480.814C327.674 481.675 327.391 482.742 327.288 484.013L336.576 484.068C337.416 484.073 337.92 484.028 338.089 483.933C338.281 483.814 338.427 483.551 338.525 483.144L339.446 479.657ZM344.321 465.322L349.091 462.362L351.647 462.377L351.519 483.94C351.514 484.78 351.547 485.273 351.618 485.417C351.689 485.561 351.917 485.659 352.301 485.709L354.279 485.937L354.274 486.873L344.878 486.817L344.883 485.881L347.585 485.681C347.969 485.659 348.197 485.577 348.27 485.433C348.343 485.266 348.382 484.762 348.387 483.922L348.504 464.086L344.927 466.297L344.321 465.322Z" fill="black"/>
<path d="M290.957 156L306.239 184.966L338.51 190.549L315.685 214.034L320.346 246.451L290.957 232L261.568 246.451L266.23 214.034L243.404 190.549L275.675 184.966L290.957 156Z" fill="url(#paint14_radial_315_2682)"/>
<path d="M287.893 210.872H288.829V218H274.393V216.092C274.393 214.436 274.669 213.056 275.221 211.952C275.773 210.848 276.481 209.912 277.345 209.144C278.233 208.352 279.181 207.632 280.189 206.984C281.053 206.408 281.893 205.82 282.709 205.22C283.525 204.62 284.197 203.888 284.725 203.024C285.277 202.136 285.553 201.032 285.553 199.712C285.553 197.888 285.193 196.532 284.473 195.644C283.777 194.756 282.793 194.312 281.521 194.312C279.865 194.312 278.713 194.912 278.065 196.112C277.441 197.288 277.249 198.98 277.489 201.188L274.357 200.612C274.117 199.316 274.213 198.104 274.645 196.976C275.101 195.848 275.905 194.936 277.057 194.24C278.209 193.52 279.709 193.16 281.557 193.16C283.333 193.16 284.773 193.472 285.877 194.096C286.981 194.72 287.785 195.536 288.289 196.544C288.793 197.552 289.045 198.632 289.045 199.784C289.045 201.104 288.793 202.208 288.289 203.096C287.785 203.984 287.125 204.716 286.309 205.292C285.493 205.868 284.605 206.384 283.645 206.84C282.685 207.272 281.749 207.728 280.837 208.208C279.949 208.664 279.133 209.204 278.389 209.828C277.669 210.452 277.069 211.208 276.589 212.096C276.133 212.96 275.857 214.028 275.761 215.3H285.049C285.889 215.3 286.393 215.252 286.561 215.156C286.753 215.036 286.897 214.772 286.993 214.364L287.893 210.872ZM311.008 204.608V206.876C311.008 209.18 310.684 211.196 310.036 212.924C309.388 214.652 308.44 215.996 307.192 216.956C305.944 217.892 304.432 218.36 302.656 218.36C300.856 218.36 299.332 217.892 298.084 216.956C296.86 215.996 295.924 214.652 295.276 212.924C294.628 211.196 294.304 209.18 294.304 206.876V204.608C294.304 202.304 294.628 200.3 295.276 198.596C295.924 196.868 296.86 195.536 298.084 194.6C299.332 193.64 300.856 193.16 302.656 193.16C304.432 193.16 305.944 193.64 307.192 194.6C308.44 195.536 309.388 196.868 310.036 198.596C310.684 200.3 311.008 202.304 311.008 204.608ZM307.516 202.088C307.516 199.304 307.096 197.312 306.256 196.112C305.416 194.912 304.216 194.312 302.656 194.312C301.096 194.312 299.896 194.912 299.056 196.112C298.216 197.312 297.796 199.304 297.796 202.088V209.396C297.796 212.204 298.216 214.208 299.056 215.408C299.896 216.608 301.096 217.208 302.656 217.208C304.216 217.208 305.416 216.608 306.256 215.408C307.096 214.208 307.516 212.204 307.516 209.396V202.088Z" fill="black"/>
<path d="M151.957 417L195.597 425.863V463.488H161.884L151.957 417Z" fill="url(#paint15_radial_315_2682)"/>
<path d="M197.355 426.151L228.957 427.42L220.492 459.5L197.355 463.488V426.151Z" fill="url(#paint16_radial_315_2682)"/>
<path d="M197.457 465.528L220.207 461.43V497.188H197.457V465.528Z" fill="url(#paint17_radial_315_2682)"/>
<rect x="161.582" y="465.528" width="34.125" height="31.5003" fill="url(#paint18_radial_315_2682)"/>
<path d="M164.4 435.508L169.152 432.52H171.708V454.084C171.708 454.924 171.744 455.416 171.816 455.56C171.888 455.704 172.116 455.8 172.5 455.848L174.48 456.064V457H165.084V456.064L167.784 455.848C168.168 455.824 168.396 455.74 168.468 455.596C168.54 455.428 168.576 454.924 168.576 454.084V434.248L165.012 436.48L164.4 435.508ZM193.58 450.808C193.58 452.704 192.944 454.276 191.672 455.524C190.4 456.748 188.492 457.36 185.948 457.36C184.172 457.36 182.696 457.084 181.52 456.532C180.344 455.956 179.468 455.212 178.892 454.3C178.316 453.388 178.028 452.416 178.028 451.384C178.028 450.064 178.472 448.852 179.36 447.748C180.248 446.62 181.532 445.684 183.212 444.94C181.772 444.244 180.632 443.404 179.792 442.42C178.952 441.412 178.532 440.14 178.532 438.604C178.532 437.428 178.808 436.36 179.36 435.4C179.912 434.416 180.716 433.636 181.772 433.06C182.852 432.46 184.16 432.16 185.696 432.16C187.232 432.16 188.54 432.424 189.62 432.952C190.724 433.48 191.564 434.2 192.14 435.112C192.74 436 193.04 436.984 193.04 438.064C193.04 439.264 192.644 440.32 191.852 441.232C191.06 442.144 189.824 442.948 188.144 443.644C189.92 444.388 191.264 445.324 192.176 446.452C193.112 447.556 193.58 449.008 193.58 450.808ZM185.516 442.528L187.028 443.176C188.204 442.552 188.996 441.82 189.404 440.98C189.836 440.14 190.052 439.168 190.052 438.064C190.052 436.48 189.656 435.292 188.864 434.5C188.072 433.708 187.004 433.312 185.66 433.312C184.388 433.312 183.32 433.684 182.456 434.428C181.616 435.148 181.196 436.216 181.196 437.632C181.196 438.832 181.568 439.804 182.312 440.548C183.056 441.268 184.124 441.928 185.516 442.528ZM181.016 451.312C181.016 452.848 181.436 454.048 182.276 454.912C183.116 455.776 184.34 456.208 185.948 456.208C187.532 456.208 188.756 455.824 189.62 455.056C190.484 454.264 190.916 453.136 190.916 451.672C190.916 450.4 190.568 449.368 189.872 448.576C189.2 447.76 188.072 447.016 186.488 446.344L184.364 445.444C183.26 445.996 182.42 446.8 181.844 447.856C181.292 448.888 181.016 450.04 181.016 451.312Z" fill="black"/>
<path d="M142.912 421.35C140.52 422.949 136.995 422.17 135.09 419.321C133.185 416.472 133.811 412.917 136.204 411.317C138.596 409.717 142.121 410.496 144.026 413.346C145.931 416.195 145.305 419.75 142.912 421.35Z" stroke="url(#paint19_radial_315_2682)" stroke-width="2"/>
<circle cx="114.329" cy="381.372" r="25.5" transform="rotate(56.2307 114.329 381.372)" fill="url(#paint20_radial_315_2682)"/>
<path d="M136.664 395.791L138.864 399.08C142.035 403.824 140.761 410.24 136.018 413.412C131.274 416.584 124.858 415.31 121.686 410.566L119.487 407.277L123.843 406.082C125.398 405.656 126.874 404.982 128.214 404.086L129.877 402.974C131.068 402.177 132.139 401.214 133.057 400.114L136.664 395.791Z" fill="url(#paint21_radial_315_2682)"/>
<path d="M101.517 374.508L106.269 371.52L108.826 371.52L108.825 393.084C108.825 393.924 108.861 394.416 108.933 394.56C109.005 394.704 109.233 394.8 109.617 394.848L111.597 395.064L111.597 396L102.201 396L102.201 395.064L104.901 394.848C105.285 394.824 105.513 394.74 105.585 394.596C105.657 394.428 105.693 393.924 105.693 393.084L105.694 373.248L102.129 375.48L101.517 374.508ZM114.931 378.72L113.995 378.72L113.995 371.52L128.863 371.52L128.863 374.004C127.783 375.396 126.847 376.8 126.055 378.216C125.263 379.632 124.603 381.168 124.075 382.824C123.547 384.48 123.127 386.376 122.815 388.512C122.503 390.648 122.287 393.144 122.167 396L118.351 396C118.615 393.792 118.963 391.752 119.395 389.88C119.851 387.984 120.427 386.184 121.123 384.48C121.843 382.776 122.719 381.096 123.751 379.44C124.807 377.784 126.055 376.068 127.495 374.292L117.775 374.292C116.935 374.292 116.431 374.352 116.263 374.472C116.095 374.568 115.951 374.82 115.831 375.228L114.931 378.72Z" fill="black"/>
<path d="M71.9196 451.749L139.888 440.786L142.957 500.861L60.957 496.037L71.9196 451.749Z" fill="url(#paint22_radial_315_2682)"/>
<path d="M109.012 430.71C109.885 428.402 112.25 427.015 114.69 427.381L114.694 427.58C114.822 434.955 112.228 442.119 107.409 447.703L107.172 447.976L103.053 446.473L109.012 430.71Z" fill="url(#paint23_radial_315_2682)"/>
<path d="M95.1602 428.555C96.8044 429.046 98.2056 430.134 99.088 431.605L108.166 446.743L104.168 448.545L95.1602 428.555Z" fill="url(#paint24_radial_315_2682)"/>
<path d="M109.79 473.493L114.729 470.825L117.279 470.994L115.855 492.511C115.799 493.349 115.803 493.842 115.865 493.991C115.928 494.139 116.149 494.25 116.529 494.323L118.49 494.67L118.428 495.603L109.053 494.983L109.115 494.049L111.823 494.012C112.208 494.013 112.441 493.944 112.522 493.805C112.605 493.643 112.674 493.142 112.73 492.304L114.04 472.511L110.336 474.503L109.79 473.493ZM138.982 490.073C138.885 491.534 138.477 492.794 137.758 493.852C137.04 494.887 136.086 495.666 134.897 496.189C133.709 496.687 132.349 496.886 130.817 496.784C128.206 496.612 126.246 495.52 124.936 493.509C123.65 491.499 123.13 488.639 123.376 484.927L123.526 482.664C123.787 478.713 124.71 475.851 126.295 474.08C127.881 472.285 129.907 471.469 132.374 471.632C133.978 471.738 135.322 472.152 136.404 472.873C137.511 473.596 138.305 474.502 138.786 475.592C139.291 476.684 139.43 477.848 139.204 479.084L136.079 479.418C136.407 477.371 136.248 475.785 135.601 474.66C134.955 473.511 133.842 472.884 132.261 472.779C131.399 472.722 130.594 472.897 129.845 473.305C129.122 473.69 128.518 474.468 128.031 475.638C127.545 476.809 127.227 478.519 127.078 480.77L126.848 484.255C127.601 483.415 128.445 482.833 129.38 482.51C130.341 482.165 131.349 482.027 132.402 482.097C134.534 482.238 136.203 482.998 137.411 484.377C138.618 485.756 139.15 487.535 139.006 489.714L138.982 490.073ZM126.648 487.272C126.513 489.308 126.587 490.924 126.868 492.121C127.174 493.32 127.669 494.195 128.354 494.745C129.065 495.273 129.935 495.571 130.965 495.64C132.258 495.725 133.317 495.35 134.142 494.515C134.992 493.657 135.491 492.127 135.636 489.924L135.66 489.564C135.782 487.721 135.53 486.261 134.904 485.185C134.279 484.085 133.236 483.487 131.776 483.39C130.913 483.333 130.024 483.503 129.108 483.899C128.216 484.297 127.423 485.014 126.729 486.051L126.648 487.272Z" fill="black"/>
<path d="M120.457 290.5L197.957 278L201.457 346.5L107.957 341L120.457 290.5Z" fill="url(#paint25_radial_315_2682)"/>
<path d="M162.751 266.511C163.746 263.879 166.443 262.298 169.226 262.715L169.258 264.548C169.386 271.923 166.792 279.087 161.973 284.67L160.653 286.199L155.957 284.484L162.751 266.511Z" fill="url(#paint26_radial_315_2682)"/>
<path d="M146.957 264.054C148.832 264.613 150.43 265.854 151.436 267.532L161.786 284.793L157.228 286.847L146.957 264.054Z" fill="url(#paint27_radial_315_2682)"/>
<path d="M164.206 319.749L169.124 317.043L171.676 317.192L170.421 338.719C170.372 339.558 170.38 340.051 170.443 340.199C170.507 340.347 170.729 340.456 171.109 340.526L173.073 340.857L173.019 341.791L163.639 341.245L163.693 340.31L166.401 340.252C166.786 340.25 167.019 340.18 167.099 340.04C167.18 339.876 167.246 339.375 167.295 338.537L168.449 318.734L164.761 320.755L164.206 319.749ZM190.699 315.343L191.634 315.398L191.301 321.112L180.231 320.467L179.352 328.133C180.075 327.694 180.85 327.379 181.679 327.187C182.531 326.996 183.401 326.926 184.287 326.978C186.659 327.116 188.498 327.957 189.802 329.499C191.108 331.018 191.69 332.987 191.549 335.407C191.47 336.772 191.131 338.039 190.534 339.206C189.939 340.349 189.033 341.258 187.815 341.933C186.623 342.584 185.093 342.856 183.224 342.747C181.571 342.65 180.157 342.159 178.983 341.274C177.81 340.364 177.008 338.851 176.579 336.734L178.881 336.219C179.054 338.2 179.538 339.575 180.335 340.343C181.132 341.11 182.057 341.525 183.111 341.586C184.597 341.673 185.754 341.199 186.584 340.166C187.439 339.11 187.932 337.456 188.063 335.204C188.179 333.215 187.926 331.577 187.304 330.291C186.707 328.982 185.546 328.277 183.821 328.177C183.006 328.129 182.159 328.236 181.278 328.497C180.399 328.735 179.518 329.2 178.636 329.894L177.936 329.529L179.314 317.637L188.227 318.156C189.09 318.206 189.607 318.201 189.779 318.138C189.976 318.054 190.124 317.786 190.222 317.335L190.699 315.343Z" fill="black"/>
<path d="M271.957 421L285.1 445.91L312.852 450.712L293.223 470.91L297.232 498.788L271.957 486.36L246.682 498.788L250.691 470.91L231.062 450.712L258.814 445.91L271.957 421Z" fill="url(#paint28_radial_315_2682)"/>
<path d="M265.109 450.001L270.658 449.153L273.003 450.171L264.414 469.951C264.08 470.721 263.917 471.187 263.925 471.348C263.934 471.508 264.105 471.687 264.438 471.884L266.168 472.871L265.795 473.73L257.177 469.987L257.55 469.129L260.112 470.006C260.474 470.137 260.717 470.151 260.84 470.047C260.973 469.922 261.207 469.474 261.541 468.703L269.442 450.508L265.284 451.136L265.109 450.001ZM277.949 475.828L279.312 472.691L269.768 468.547L270.227 467.49C271.866 466.789 273.337 466.054 274.639 465.285C275.95 464.494 277.166 463.622 278.286 462.669C279.406 461.716 280.488 460.642 281.53 459.447C282.604 458.238 283.701 456.857 284.821 455.302L288.321 456.822C286.093 459.544 283.596 461.769 280.83 463.499C278.064 465.229 274.992 466.76 271.614 468.093L279.77 471.634L282.021 466.45L285.095 467.235L282.643 472.881L285.186 473.986L284.727 475.042L282.184 473.938L280.822 477.075C280.488 477.846 280.325 478.311 280.333 478.472C280.342 478.633 280.513 478.812 280.846 479.009L282.576 479.995L282.204 480.854L273.585 477.112L273.958 476.253L276.52 477.13C276.882 477.261 277.125 477.275 277.248 477.172C277.381 477.046 277.615 476.598 277.949 475.828Z" fill="black"/>
<path d="M266.761 361.424L316.193 349.083L335.433 388.867L300.747 405.642L266.761 361.424Z" fill="url(#paint29_radial_315_2682)"/>
<path d="M319.05 348.076L352.212 333.694L359.908 371.829L338.143 387.557L319.05 348.076Z" fill="url(#paint30_radial_315_2682)"/>
<path d="M339.453 390.267L361.005 374.591L378.974 411.749L355.363 423.167L339.453 390.267Z" fill="url(#paint31_radial_315_2682)"/>
<rect x="301.907" y="408.424" width="38.6957" height="36.5459" transform="rotate(-25.8086 301.907 408.424)" fill="url(#paint32_radial_315_2682)"/>
<path d="M293.594 377.366L296.685 372.68L299.012 371.623L307.93 391.257C308.277 392.022 308.513 392.455 308.638 392.556C308.764 392.657 309.011 392.65 309.38 392.535L311.272 391.913L311.66 392.765L303.105 396.651L302.718 395.799L305.087 394.486C305.426 394.305 305.599 394.134 305.605 393.973C305.601 393.791 305.426 393.317 305.078 392.552L296.875 374.492L294.553 377.998L293.594 377.366ZM314.965 378.058L314.08 378.46L313.603 377.411L314.488 377.009C316.302 376.185 317.361 375.151 317.665 373.906C317.991 372.65 317.827 371.302 317.172 369.859C316.477 368.33 315.634 367.316 314.643 366.817C313.652 366.318 312.578 366.331 311.419 366.858C309.912 367.542 309.111 368.565 309.017 369.926C308.935 371.254 309.46 372.874 310.592 374.785L307.502 375.556C306.769 374.466 306.367 373.317 306.293 372.112C306.242 370.896 306.586 369.738 307.325 368.638C308.076 367.506 309.293 366.558 310.976 365.794C312.593 365.059 314.017 364.742 315.249 364.842C316.492 364.909 317.542 365.276 318.397 365.942C319.243 366.586 319.895 367.41 320.351 368.415C321.046 369.945 321.127 371.371 320.594 372.694C320.083 374.007 319.023 375.213 317.414 376.313C319.401 375.753 321.109 375.742 322.539 376.279C323.991 376.805 325.099 377.91 325.863 379.593C326.349 380.663 326.534 381.766 326.416 382.9C326.32 384.024 325.861 385.102 325.039 386.135C324.228 387.136 322.981 388.018 321.299 388.783C319.704 389.507 318.136 389.771 316.597 389.574C315.08 389.367 313.633 388.416 312.257 386.721L314.054 385.193C314.775 386.316 315.507 387.116 316.252 387.595C317.019 388.064 317.772 388.302 318.513 388.308C319.266 388.283 319.992 388.111 320.691 387.793C323.488 386.523 324.152 384.271 322.683 381.037C321.969 379.463 320.99 378.353 319.747 377.705C318.503 377.057 316.909 377.175 314.965 378.058Z" fill="black"/>
<rect x="162.957" y="586.73" width="38.2641" height="95.1754" fill="url(#paint33_radial_315_2682)"/>
<path d="M204.165 586.73H240.957V634.318V681.906H204.165V586.73Z" fill="url(#paint34_radial_315_2682)"/>
<path d="M168.903 625.508L173.655 622.52H176.211V644.084C176.211 644.924 176.247 645.416 176.319 645.56C176.391 645.704 176.619 645.8 177.003 645.848L178.983 646.064V647H169.587V646.064L172.287 645.848C172.671 645.824 172.899 645.74 172.971 645.596C173.043 645.428 173.079 644.924 173.079 644.084V624.248L169.515 626.48L168.903 625.508ZM196.211 639.872H197.147V647H182.711V645.092C182.711 643.436 182.987 642.056 183.539 640.952C184.091 639.848 184.799 638.912 185.663 638.144C186.551 637.352 187.499 636.632 188.507 635.984C189.371 635.408 190.211 634.82 191.027 634.22C191.843 633.62 192.515 632.888 193.043 632.024C193.595 631.136 193.871 630.032 193.871 628.712C193.871 626.888 193.511 625.532 192.791 624.644C192.095 623.756 191.111 623.312 189.839 623.312C188.183 623.312 187.031 623.912 186.383 625.112C185.759 626.288 185.567 627.98 185.807 630.188L182.675 629.612C182.435 628.316 182.531 627.104 182.963 625.976C183.419 624.848 184.223 623.936 185.375 623.24C186.527 622.52 188.027 622.16 189.875 622.16C191.651 622.16 193.091 622.472 194.195 623.096C195.299 623.72 196.103 624.536 196.607 625.544C197.111 626.552 197.363 627.632 197.363 628.784C197.363 630.104 197.111 631.208 196.607 632.096C196.103 632.984 195.443 633.716 194.627 634.292C193.811 634.868 192.923 635.384 191.963 635.84C191.003 636.272 190.067 636.728 189.155 637.208C188.267 637.664 187.451 638.204 186.707 638.828C185.987 639.452 185.387 640.208 184.907 641.096C184.451 641.96 184.175 643.028 184.079 644.3H193.367C194.207 644.3 194.711 644.252 194.879 644.156C195.071 644.036 195.215 643.772 195.311 643.364L196.211 639.872Z" fill="black"/>
<path d="M197.498 109.177C198.748 111.769 197.484 115.15 194.397 116.639C191.309 118.128 187.877 117.011 186.627 114.418C185.377 111.826 186.64 108.445 189.728 106.956C192.815 105.467 196.248 106.584 197.498 109.177Z" stroke="url(#paint35_radial_315_2682)" stroke-width="2"/>
<circle cx="154.754" cy="133.796" r="25.5" transform="rotate(20.4275 154.754 133.796)" fill="url(#paint36_radial_315_2682)"/>
<path d="M144.806 144.856C146.066 144.856 147.83 144.244 147.83 140.032L147.83 127.036C147.83 124.912 146.39 124.228 145.238 124.228L145.238 124.084C147.794 124.084 150.134 121.384 150.566 119.872L150.71 119.872L150.71 140.032C150.71 144.244 152.474 144.856 153.734 144.856L153.734 145L144.806 145L144.806 144.856ZM155.177 144.856C156.437 144.856 158.201 144.244 158.201 140.032L158.201 127.036C158.201 124.912 156.761 124.228 155.609 124.228L155.609 124.084C158.165 124.084 160.505 121.384 160.937 119.872L161.081 119.872L161.081 140.032C161.081 144.244 162.845 144.856 164.105 144.856L164.105 145L155.177 145L155.177 144.856Z" fill="black"/>
<path d="M170.492 112.106L173.906 110.106C178.83 107.222 185.159 108.875 188.044 113.798C190.928 118.722 189.275 125.051 184.351 127.935L180.937 129.936L180.004 125.516C179.67 123.938 179.085 122.425 178.27 121.034L177.259 119.308C176.535 118.072 175.637 116.945 174.594 115.964L170.492 112.106Z" fill="url(#paint37_radial_315_2682)"/>
<circle cx="303.298" cy="292.226" r="25.5" transform="rotate(-98.1408 303.298 292.226)" fill="url(#paint38_radial_315_2682)"/>
<path d="M289.397 269.565L288.837 265.648C288.029 260 291.953 254.765 297.602 253.957C303.251 253.149 308.485 257.074 309.293 262.722L309.853 266.639L305.408 265.832C303.822 265.544 302.2 265.513 300.604 265.742L298.623 266.025C297.205 266.228 295.823 266.633 294.52 267.228L289.397 269.565Z" fill="url(#paint39_radial_315_2682)"/>
<path d="M294.819 243.819C297.669 243.411 300.509 245.638 300.995 249.031C301.48 252.424 299.378 255.358 296.529 255.766C293.679 256.174 290.839 253.947 290.353 250.553C289.868 247.16 291.97 244.226 294.819 243.819Z" stroke="url(#paint40_radial_315_2682)" stroke-width="2"/>
<path d="M287.629 282.504L292.463 279.651L295.018 279.723L294.412 301.278C294.389 302.118 294.411 302.611 294.479 302.757C294.547 302.903 294.772 303.005 295.154 303.064L297.128 303.335L297.101 304.271L287.709 304.007L287.735 303.072L290.44 302.932C290.825 302.918 291.055 302.841 291.131 302.699C291.208 302.533 291.258 302.03 291.281 301.19L291.839 281.362L288.213 283.493L287.629 282.504ZM318.405 291.472L318.341 293.74C318.276 296.043 317.896 298.049 317.199 299.758C316.503 301.467 315.518 302.784 314.243 303.708C312.969 304.609 311.445 305.034 309.67 304.984C307.87 304.934 306.36 304.423 305.139 303.453C303.942 302.459 303.044 301.089 302.445 299.343C301.846 297.598 301.579 295.573 301.643 293.27L301.707 291.003C301.772 288.7 302.152 286.706 302.848 285.021C303.544 283.312 304.517 282.007 305.767 281.105C307.041 280.181 308.578 279.744 310.377 279.794C312.153 279.844 313.651 280.367 314.871 281.361C316.092 282.332 317.003 283.69 317.602 285.435C318.202 287.157 318.469 289.169 318.405 291.472ZM314.985 288.855C315.063 286.072 314.699 284.069 313.893 282.846C313.087 281.623 311.904 280.99 310.345 280.946C308.786 280.902 307.569 281.468 306.696 282.644C305.822 283.82 305.347 285.799 305.269 288.582L305.063 295.887C304.984 298.694 305.348 300.709 306.154 301.932C306.96 303.156 308.143 303.789 309.702 303.833C311.261 303.877 312.478 303.311 313.351 302.135C314.224 300.959 314.701 298.967 314.779 296.16L314.985 288.855Z" fill="black"/>
<path d="M64.8663 410.164C67.1701 411.889 67.606 415.472 65.5514 418.216C63.4968 420.959 59.9356 421.549 57.6319 419.824C55.3281 418.099 54.8921 414.516 56.9468 411.772C59.0014 409.028 62.5625 408.438 64.8663 410.164Z" stroke="url(#paint41_radial_315_2682)" stroke-width="2"/>
<circle cx="36.6534" cy="450.404" r="25.5" transform="rotate(-53.1712 36.6534 450.404)" fill="url(#paint42_radial_315_2682)"/>
<path d="M45.9707 448.698C47.0404 452.511 47.0688 455.544 46.0559 457.798C45.0595 460.021 43.3135 461.483 40.8179 462.183C39.2466 462.624 37.7383 462.624 36.2932 462.182C34.8712 461.733 33.6092 460.567 32.5072 458.682L34.4812 457.455C35.0226 458.675 35.6133 459.581 36.2533 460.174C36.9165 460.76 37.6021 461.116 38.3103 461.242C39.0351 461.338 39.7442 461.288 40.4374 461.094C41.3155 460.847 42.0775 460.409 42.7233 459.779C43.3858 459.12 43.7861 458.148 43.9241 456.863C44.0852 455.571 43.861 453.839 43.2516 451.667L42.4834 448.929C42.0466 449.949 41.4328 450.782 40.6418 451.427C39.8739 452.066 38.9816 452.529 37.9648 452.814C36.6015 453.196 35.3188 453.245 34.1169 452.959C32.9381 452.666 31.9172 452.093 31.0543 451.238C30.2079 450.354 29.5903 449.218 29.2013 447.832L28.9485 446.931C28.5465 445.498 28.5116 444.174 28.8438 442.959C29.1695 441.721 29.8059 440.658 30.753 439.769C31.7001 438.88 32.9131 438.228 34.392 437.813C36.9338 437.1 39.1458 437.477 41.0278 438.943C42.9098 440.409 44.3532 442.933 45.3581 446.515L45.9707 448.698ZM32.3957 446.824C32.8884 448.58 33.6157 449.884 34.5775 450.736C35.5329 451.564 36.7154 451.781 38.125 451.385C38.98 451.146 39.7618 450.689 40.4705 450.017C41.2023 449.338 41.708 448.386 41.9874 447.161L41.4915 445.393C40.9404 443.429 40.3212 441.933 39.6338 440.904C38.9695 439.869 38.2259 439.218 37.403 438.95C36.5736 438.659 35.6506 438.657 34.6338 438.942C33.386 439.292 32.504 440.013 31.9878 441.105C31.4882 442.168 31.5367 443.762 32.1331 445.888L32.3957 446.824Z" fill="black"/>
<path d="M42.835 424.547L45.2068 421.38C48.6272 416.813 55.1026 415.883 59.67 419.303C64.2374 422.724 65.1672 429.199 61.7468 433.767L59.3749 436.934L56.8009 433.221C55.8822 431.897 54.756 430.728 53.4655 429.762L51.8642 428.563C50.7175 427.704 49.4536 427.014 48.1111 426.514L42.835 424.547Z" fill="url(#paint43_radial_315_2682)"/>
<path d="M222.648 304.226L272.526 292.646L274.457 351.471L215.957 346L222.648 304.226Z" fill="url(#paint44_radial_315_2682)"/>
<path d="M250.299 281.078C250.799 279.172 252.401 278.124 254.215 278.515L254.252 281.578C254.325 287.616 252.909 293.248 250.17 297.816L248.698 300.27L245.675 298.682L250.299 281.078Z" fill="url(#paint45_radial_315_2682)"/>
<path d="M239.883 279.756C241.1 280.278 242.073 281.315 242.653 282.708L249.427 298.968L246.493 300.871L239.883 279.756Z" fill="url(#paint46_radial_315_2682)"/>
<path d="M238.831 338.979C238.424 340.831 237.489 342.148 236.027 342.931C234.569 343.691 232.645 343.635 230.255 342.764C228.586 342.155 227.259 341.38 226.272 340.438C225.291 339.473 224.628 338.446 224.282 337.358C223.937 336.27 223.875 335.222 224.097 334.214C224.38 332.925 225.057 331.893 226.128 331.119C227.205 330.322 228.612 329.847 230.35 329.696C229.147 328.523 228.256 327.312 227.678 326.063C227.105 324.791 226.984 323.405 227.313 321.905C227.566 320.756 228.054 319.807 228.779 319.059C229.509 318.287 230.432 317.801 231.547 317.6C232.691 317.384 233.984 317.539 235.427 318.065C236.87 318.591 238.042 319.297 238.944 320.182C239.868 321.076 240.502 322.067 240.848 323.155C241.221 324.228 241.291 325.292 241.06 326.347C240.802 327.519 240.203 328.415 239.263 329.034C238.324 329.653 236.99 330.015 235.262 330.12C236.771 331.455 237.833 332.829 238.447 334.243C239.09 335.642 239.218 337.221 238.831 338.979ZM233.033 328.129L234.314 329.28C235.553 329.074 236.454 328.63 237.018 327.949C237.604 327.277 238.015 326.402 238.252 325.323C238.592 323.776 238.475 322.48 237.901 321.435C237.327 320.391 236.409 319.638 235.146 319.178C233.951 318.742 232.868 318.739 231.896 319.17C230.953 319.586 230.329 320.485 230.025 321.868C229.767 323.04 229.908 324.117 230.447 325.098C230.992 326.056 231.854 327.067 233.033 328.129ZM226.919 335.167C226.59 336.667 226.727 337.983 227.33 339.115C227.934 340.247 228.991 341.088 230.502 341.639C231.99 342.181 233.223 342.225 234.199 341.771C235.181 341.294 235.829 340.34 236.143 338.91C236.416 337.668 236.311 336.541 235.827 335.529C235.371 334.501 234.471 333.388 233.127 332.189L231.324 330.583C230.169 330.744 229.207 331.241 228.439 332.075C227.699 332.894 227.192 333.925 226.919 335.167Z" fill="black"/>
<path d="M309.957 502L349.771 510.311V545.589H319.013L309.957 502Z" fill="url(#paint47_radial_315_2682)"/>
<path d="M351.375 510.58L380.205 511.77L372.483 541.85L351.375 545.589V510.58Z" fill="url(#paint48_radial_315_2682)"/>
<path d="M351.468 547.502L372.223 543.66V577.187H351.468V547.502Z" fill="url(#paint49_radial_315_2682)"/>
<rect x="318.738" y="547.502" width="31.1327" height="29.5362" fill="url(#paint50_radial_315_2682)"/>
<path d="M325.153 526.746L324.369 527.258L320.431 521.231L332.878 513.098L334.236 515.178C334.094 516.934 334.078 518.621 334.19 520.239C334.301 521.858 334.589 523.505 335.053 525.18C335.516 526.855 336.202 528.672 337.109 530.631C338.016 532.59 339.201 534.797 340.662 537.254L337.468 539.341C336.481 537.348 335.657 535.45 334.994 533.647C334.339 531.81 333.837 529.988 333.487 528.181C333.158 526.361 332.972 524.475 332.93 522.524C332.909 520.56 333.015 518.441 333.249 516.167L325.112 521.484C324.409 521.943 324.019 522.269 323.944 522.461C323.856 522.634 323.874 522.923 323.996 523.33L325.153 526.746Z" fill="#212D1C"/>
<path d="M214.526 93L247.274 120.189L229.992 152.813L201.548 137.746L214.526 93Z" fill="url(#paint51_radial_315_2682)"/>
<path d="M249.363 121.615L275.442 136.839L253.565 160.873L232.214 153.99L249.363 121.615Z" fill="url(#paint52_radial_315_2682)"/>
<path d="M231.036 156.212L252.247 162.977L236.106 193.447L216.745 183.191L231.036 156.212Z" fill="url(#paint53_radial_315_2682)"/>
<rect x="200.248" y="139.903" width="32.3264" height="30.5305" transform="rotate(27.9111 200.248 139.903)" fill="url(#paint54_radial_315_2682)"/>
<path d="M231.518 130.571C231.518 132.035 231.194 133.319 230.546 134.423C229.898 135.503 228.998 136.343 227.846 136.943C226.694 137.519 225.35 137.807 223.814 137.807C221.198 137.807 219.17 136.847 217.73 134.927C216.314 133.007 215.606 130.187 215.606 126.467V124.199C215.606 120.239 216.338 117.323 217.802 115.451C219.266 113.555 221.234 112.607 223.706 112.607C225.314 112.607 226.682 112.931 227.81 113.579C228.962 114.227 229.814 115.079 230.366 116.135C230.942 117.191 231.158 118.343 231.014 119.591L227.918 120.131C228.11 118.067 227.846 116.495 227.126 115.415C226.406 114.311 225.254 113.759 223.67 113.759C222.806 113.759 222.014 113.987 221.294 114.443C220.598 114.875 220.046 115.691 219.638 116.891C219.23 118.091 219.026 119.819 219.026 122.075V125.567C219.722 124.679 220.526 124.043 221.438 123.659C222.374 123.251 223.37 123.047 224.426 123.047C226.562 123.047 228.278 123.695 229.574 124.991C230.87 126.287 231.518 128.027 231.518 130.211V130.571ZM219.026 128.591C219.026 130.631 219.206 132.239 219.566 133.415C219.95 134.591 220.502 135.431 221.222 135.935C221.966 136.415 222.854 136.655 223.886 136.655C225.182 136.655 226.214 136.211 226.982 135.323C227.774 134.411 228.17 132.851 228.17 130.643V130.283C228.17 128.435 227.822 126.995 227.126 125.963C226.43 124.907 225.35 124.379 223.886 124.379C223.022 124.379 222.146 124.607 221.258 125.063C220.394 125.519 219.65 126.287 219.026 127.367V128.591Z" fill="#212D1C"/>
<rect x="167.125" y="346.405" width="21.2624" height="54.8144" transform="rotate(25.4021 167.125 346.405)" fill="url(#paint55_radial_315_2682)"/>
<path d="M188.4 356.508L207.607 365.629L195.85 390.386L184.094 415.144L164.887 406.023L188.4 356.508Z" fill="url(#paint56_radial_315_2682)"/>
<path d="M187.378 378.321L188.312 378.273L188.607 383.99L177.534 384.561L177.5 392.277C178.17 391.762 178.907 391.363 179.709 391.082C180.536 390.799 181.392 390.634 182.279 390.589C184.652 390.466 186.571 391.1 188.037 392.49C189.501 393.857 190.296 395.75 190.421 398.171C190.491 399.537 190.294 400.833 189.828 402.059C189.362 403.26 188.56 404.263 187.424 405.067C186.311 405.845 184.819 406.282 182.95 406.379C181.296 406.464 179.837 406.131 178.572 405.379C177.307 404.603 176.345 403.187 175.686 401.13L177.917 400.366C178.306 402.317 178.939 403.63 179.815 404.306C180.691 404.982 181.656 405.292 182.711 405.238C184.197 405.161 185.295 404.564 186.007 403.446C186.741 402.302 187.05 400.604 186.933 398.351C186.831 396.362 186.4 394.762 185.64 393.551C184.904 392.316 183.672 391.742 181.947 391.831C181.132 391.873 180.301 392.072 179.454 392.429C178.606 392.761 177.782 393.32 176.981 394.106L176.246 393.82L176.313 381.848L185.229 381.388C186.092 381.344 186.605 381.281 186.769 381.201C186.956 381.095 187.074 380.812 187.122 380.353L187.378 378.321Z" fill="black"/>
<path d="M281.669 400.632C280.664 403.329 277.35 404.759 274.138 403.562C270.925 402.366 269.354 399.116 270.359 396.419C271.363 393.722 274.677 392.292 277.89 393.488C281.102 394.685 282.673 397.934 281.669 400.632Z" stroke="url(#paint57_radial_315_2682)" stroke-width="2"/>
<circle cx="235.1" cy="384.929" r="25.5" transform="rotate(20.4275 235.1 384.929)" fill="url(#paint58_radial_315_2682)"/>
<path d="M236.321 392.695L236.058 389.285L225.685 390.085L225.596 388.937C226.717 387.551 227.673 386.213 228.464 384.924C229.253 383.612 229.92 382.272 230.465 380.906C231.009 379.54 231.463 378.085 231.825 376.541C232.209 374.971 232.533 373.236 232.795 371.339L236.6 371.045C235.903 374.493 234.737 377.628 233.101 380.45C231.466 383.272 229.467 386.062 227.104 388.821L235.97 388.136L235.535 382.501L238.618 381.757L239.092 387.895L241.856 387.682L241.945 388.83L239.181 389.044L239.444 392.454C239.509 393.291 239.583 393.779 239.665 393.917C239.748 394.055 239.983 394.133 240.37 394.151L242.36 394.214L242.432 395.148L233.064 395.871L232.992 394.937L235.668 394.514C236.049 394.461 236.269 394.36 236.33 394.21C236.389 394.037 236.386 393.532 236.321 392.695Z" fill="black"/>
<path d="M261.649 383.558L265.357 384.939C270.705 386.93 273.425 392.88 271.434 398.227C269.442 403.574 263.493 406.295 258.145 404.303L254.437 402.922L257.272 399.405C258.283 398.149 259.086 396.739 259.649 395.228L260.347 393.354C260.847 392.011 261.152 390.604 261.253 389.174L261.649 383.558Z" fill="url(#paint59_radial_315_2682)"/>
<rect x="17.957" y="512.312" width="28" height="65" fill="url(#paint60_radial_315_2682)"/>
<rect x="47.957" y="512.312" width="29" height="65" fill="url(#paint61_radial_315_2682)"/>
<path d="M42.7132 497.401C44.0053 499.937 44.9178 503.042 45.1777 505.605C45.3083 506.893 45.2587 507.902 45.0995 508.574C45.0589 508.746 45.0175 508.872 44.9813 508.963C44.7771 508.911 44.4917 508.812 44.1218 508.639C43.1251 508.171 41.8662 507.331 40.5161 506.205C37.7933 503.933 35.17 500.898 33.946 498.496C32.8024 496.251 32.9236 494.645 33.3521 493.558C33.8133 492.387 34.7632 491.49 35.747 490.988C35.8966 490.912 36.6943 490.72 38.3066 491.892C39.7951 492.973 41.428 494.879 42.7132 497.401ZM44.8688 509.176C44.8688 509.176 44.8704 509.174 44.8739 509.17C44.8707 509.174 44.8689 509.176 44.8688 509.176ZM45.261 509.012C45.2666 509.012 45.2696 509.012 45.2696 509.012C45.2697 509.012 45.2669 509.012 45.261 509.012Z" fill="url(#paint62_radial_315_2682)" stroke="#DF2E38" stroke-width="5"/>
<path d="M52.3435 499.053C51.3829 501.732 49.7483 504.524 48.0605 506.471C47.2118 507.449 46.4438 508.104 45.8448 508.449C45.6921 508.537 45.5718 508.594 45.4805 508.63C45.3785 508.446 45.255 508.17 45.1278 507.782C44.7851 506.735 44.5337 505.243 44.4281 503.488C44.2152 499.949 44.6266 495.958 45.5366 493.42C46.4476 490.879 48.207 488.379 50.0569 486.667C50.9797 485.813 51.8376 485.236 52.5223 484.933C52.8376 484.793 53.057 484.735 53.196 484.712C53.2606 484.84 53.3498 485.053 53.4462 485.39C53.7115 486.318 53.8697 487.671 53.8752 489.311C53.8862 492.589 53.2895 496.414 52.3435 499.053ZM45.2487 508.694C45.2487 508.694 45.2513 508.694 45.2562 508.694C45.2511 508.694 45.2486 508.694 45.2487 508.694ZM45.6371 508.867C45.6411 508.871 45.6431 508.873 45.6431 508.873C45.6431 508.873 45.641 508.871 45.6371 508.867Z" fill="url(#paint63_radial_315_2682)" stroke="url(#paint64_linear_315_2682)" stroke-width="5"/>
<path d="M30.5248 557.288H29.5528V556.136H30.5248C32.5168 556.136 33.9088 555.632 34.7008 554.624C35.5168 553.616 35.9248 552.32 35.9248 550.736C35.9248 549.056 35.5768 547.784 34.8808 546.92C34.1848 546.056 33.2008 545.624 31.9288 545.624C30.2728 545.624 29.1208 546.224 28.4728 547.424C27.8488 548.6 27.6568 550.292 27.8968 552.5L24.7648 551.924C24.5488 550.628 24.6568 549.416 25.0888 548.288C25.5448 547.16 26.3368 546.248 27.4648 545.552C28.6168 544.832 30.1168 544.472 31.9648 544.472C33.7408 544.472 35.1688 544.772 36.2488 545.372C37.3528 545.948 38.1568 546.716 38.6608 547.676C39.1648 548.612 39.4168 549.632 39.4168 550.736C39.4168 552.416 38.9008 553.748 37.8688 554.732C36.8608 555.716 35.3968 556.376 33.4768 556.712C35.5168 557.024 37.0768 557.72 38.1568 558.8C39.2608 559.88 39.8128 561.344 39.8128 563.192C39.8128 564.368 39.5248 565.448 38.9488 566.432C38.3968 567.416 37.5328 568.208 36.3568 568.808C35.2048 569.384 33.7048 569.672 31.8568 569.672C30.1048 569.672 28.5688 569.264 27.2488 568.448C25.9528 567.632 25.0288 566.168 24.4768 564.056L26.7448 563.408C26.9368 564.728 27.2728 565.76 27.7528 566.504C28.2568 567.248 28.8448 567.776 29.5168 568.088C30.2128 568.376 30.9448 568.52 31.7128 568.52C34.7848 568.52 36.3208 566.744 36.3208 563.192C36.3208 561.464 35.8888 560.048 35.0248 558.944C34.1608 557.84 32.6608 557.288 30.5248 557.288Z" fill="black"/>
<path d="M83.957 248L95.5717 270.014L120.097 274.257L102.75 292.106L106.293 316.743L83.957 305.76L61.6212 316.743L65.1642 292.106L47.8169 274.257L72.3424 270.014L83.957 248Z" fill="url(#paint65_radial_315_2682)"/>
<path d="M89.9453 290.572H90.8813V297.7H76.4453V295.792C76.4453 294.136 76.7213 292.756 77.2733 291.652C77.8253 290.548 78.5333 289.612 79.3973 288.844C80.2853 288.052 81.2333 287.332 82.2413 286.684C83.1053 286.108 83.9453 285.52 84.7613 284.92C85.5773 284.32 86.2493 283.588 86.7773 282.724C87.3293 281.836 87.6053 280.732 87.6053 279.412C87.6053 277.588 87.2453 276.232 86.5253 275.344C85.8293 274.456 84.8453 274.012 83.5733 274.012C81.9173 274.012 80.7653 274.612 80.1173 275.812C79.4933 276.988 79.3013 278.68 79.5413 280.888L76.4093 280.312C76.1693 279.016 76.2653 277.804 76.6973 276.676C77.1533 275.548 77.9573 274.636 79.1093 273.94C80.2613 273.22 81.7613 272.86 83.6093 272.86C85.3853 272.86 86.8253 273.172 87.9293 273.796C89.0333 274.42 89.8373 275.236 90.3413 276.244C90.8453 277.252 91.0973 278.332 91.0973 279.484C91.0973 280.804 90.8453 281.908 90.3413 282.796C89.8373 283.684 89.1773 284.416 88.3613 284.992C87.5453 285.568 86.6573 286.084 85.6973 286.54C84.7373 286.972 83.8013 287.428 82.8893 287.908C82.0013 288.364 81.1853 288.904 80.4413 289.528C79.7213 290.152 79.1213 290.908 78.6413 291.796C78.1853 292.66 77.9093 293.728 77.8133 295H87.1013C87.9413 295 88.4453 294.952 88.6133 294.856C88.8053 294.736 88.9493 294.472 89.0453 294.064L89.9453 290.572Z" fill="black"/>
<path d="M204.957 0L220.239 28.9656L252.51 34.5491L229.685 58.0344L234.346 90.4509L204.957 76L175.568 90.4509L180.23 58.0344L157.404 34.5491L189.675 28.9656L204.957 0Z" fill="url(#paint66_radial_315_2682)"/>
<path d="M190.338 42.508L195.09 39.52H197.646V61.084C197.646 61.924 197.682 62.416 197.754 62.56C197.826 62.704 198.054 62.8 198.438 62.848L200.418 63.064V64H191.022V63.064L193.722 62.848C194.106 62.824 194.334 62.74 194.406 62.596C194.478 62.428 194.514 61.924 194.514 61.084V41.248L190.95 43.48L190.338 42.508ZM219.949 52.768C219.949 56.728 219.157 59.656 217.573 61.552C216.013 63.424 213.937 64.36 211.345 64.36C209.713 64.36 208.261 63.952 206.989 63.136C205.741 62.32 204.841 60.856 204.289 58.744L206.521 58.096C206.713 59.416 207.037 60.448 207.493 61.192C207.973 61.936 208.537 62.464 209.185 62.776C209.857 63.064 210.553 63.208 211.273 63.208C212.185 63.208 213.037 62.992 213.829 62.56C214.645 62.104 215.293 61.276 215.773 60.076C216.277 58.876 216.529 57.148 216.529 54.892V52.048C215.833 52.912 215.017 53.548 214.081 53.956C213.169 54.364 212.185 54.568 211.129 54.568C209.713 54.568 208.465 54.268 207.385 53.668C206.329 53.068 205.501 52.24 204.901 51.184C204.325 50.104 204.037 48.844 204.037 47.404V46.468C204.037 44.98 204.361 43.696 205.009 42.616C205.657 41.512 206.557 40.66 207.709 40.06C208.861 39.46 210.205 39.16 211.741 39.16C214.381 39.16 216.409 40.12 217.825 42.04C219.241 43.96 219.949 46.78 219.949 50.5V52.768ZM207.385 47.296C207.385 49.12 207.733 50.572 208.429 51.652C209.125 52.708 210.205 53.236 211.669 53.236C212.557 53.236 213.433 53.008 214.297 52.552C215.185 52.096 215.929 51.316 216.529 50.212V48.376C216.529 46.336 216.337 44.728 215.953 43.552C215.593 42.376 215.053 41.548 214.333 41.068C213.613 40.564 212.725 40.312 211.669 40.312C210.373 40.312 209.329 40.768 208.537 41.68C207.769 42.568 207.385 44.116 207.385 46.324V47.296Z" fill="black"/>
<rect x="185.957" y="197" width="28.8889" height="74.4754" fill="url(#paint67_radial_315_2682)"/>
<path d="M216.957 197H245.846V234.238V271.475H216.957V197Z" fill="url(#paint68_radial_315_2682)"/>
<path d="M226.991 225.856C228.251 225.856 230.015 225.244 230.015 221.032V208.036C230.015 205.912 228.575 205.228 227.423 205.228V205.084C229.979 205.084 232.319 202.384 232.751 200.872H232.895V221.032C232.895 225.244 234.659 225.856 235.919 225.856V226H226.991V225.856Z" fill="#212D1C"/>
<rect x="185.957" y="197" width="28.8889" height="74.4754" fill="url(#paint69_radial_315_2682)"/>
<path d="M216.957 197H245.846V234.238V271.475H216.957V197Z" fill="url(#paint70_radial_315_2682)"/>
<path d="M226.991 225.856C228.251 225.856 230.015 225.244 230.015 221.032V208.036C230.015 205.912 228.575 205.228 227.423 205.228V205.084C229.979 205.084 232.319 202.384 232.751 200.872H232.895V221.032C232.895 225.244 234.659 225.856 235.919 225.856V226H226.991V225.856Z" fill="#212D1C"/>
<defs>
<radialGradient id="paint0_radial_315_2682" cx="0" cy="0" r="1" gradientUnits="userSpaceOnUse" gradientTransform="translate(132.957 525.5) rotate(90) scale(61.5 162.136)">
<stop stop-color="#E180DE" stop-opacity="0.62"/>
<stop offset="1" stop-color="#6B17C0"/>
</radialGradient>
<radialGradient id="paint1_radial_315_2682" cx="0" cy="0" r="1" gradientUnits="userSpaceOnUse" gradientTransform="translate(132.957 481.5) rotate(90) scale(74.5 196.409)">
<stop offset="0.0520833" stop-color="#E180DE" stop-opacity="0.67"/>
<stop offset="1" stop-color="#6B17C0"/>
</radialGradient>
<radialGradient id="paint2_radial_315_2682" cx="0" cy="0" r="1" gradientUnits="userSpaceOnUse" gradientTransform="translate(255.565 568.892) rotate(88.8087) scale(16.2865 71.2534)">
<stop stop-color="#E180DE" stop-opacity="0.77"/>
<stop offset="1" stop-color="#6B17C0" stop-opacity="0.99"/>
</radialGradient>
<radialGradient id="paint3_radial_315_2682" cx="0" cy="0" r="1" gradientUnits="userSpaceOnUse" gradientTransform="translate(209.457 497) rotate(120.9) scale(76.9172 62.9322)">
<stop offset="0.0520833" stop-color="#E180DE" stop-opacity="0.7"/>
<stop offset="1" stop-color="#6B17C0"/>
</radialGradient>
<radialGradient id="paint4_radial_315_2682" cx="0" cy="0" r="1" gradientUnits="userSpaceOnUse" gradientTransform="translate(166.957 524.5) rotate(53.2971) scale(68.6003 56.1275)">
<stop stop-color="#E180DE" stop-opacity="0.83"/>
<stop offset="1" stop-color="#6B17C0"/>
</radialGradient>
<radialGradient id="paint5_radial_315_2682" cx="0" cy="0" r="1" gradientUnits="userSpaceOnUse" gradientTransform="translate(137.704 205.468) rotate(-107.077) scale(34.25 46.75)">
<stop stop-color="#F7505A"/>
<stop offset="1" stop-color="#F40816" stop-opacity="0.73"/>
</radialGradient>
<radialGradient id="paint6_radial_315_2682" cx="0" cy="0" r="1" gradientUnits="userSpaceOnUse" gradientTransform="translate(139.134 244.606) rotate(-87.0225) scale(12.5 4.88605)">
<stop stop-color="#F7505A"/>
<stop offset="1" stop-color="#F40816" stop-opacity="0.73"/>
</radialGradient>
<radialGradient id="paint7_radial_315_2682" cx="0" cy="0" r="1" gradientUnits="userSpaceOnUse" gradientTransform="translate(73.957 352.5) rotate(-1.78991) scale(32.0156 29.2426)">
<stop stop-color="#8DC180" stop-opacity="0.55"/>
<stop offset="0.964359" stop-color="#3E5227" stop-opacity="0.95"/>
</radialGradient>
<radialGradient id="paint8_radial_315_2682" cx="0" cy="0" r="1" gradientUnits="userSpaceOnUse" gradientTransform="translate(40.957 354.5) rotate(-0.842521) scale(34.0037 28.003)">
<stop stop-color="#8DC180" stop-opacity="0.41"/>
<stop offset="1" stop-color="#3E5227" stop-opacity="0.7"/>
</radialGradient>
<radialGradient id="paint9_radial_315_2682" cx="0" cy="0" r="1" gradientUnits="userSpaceOnUse" gradientTransform="translate(46.457 385) rotate(89.1575) scale(34.0037 21.0499)">
<stop stop-color="#8DC180" stop-opacity="0.68"/>
<stop offset="0.832378" stop-color="#3E5227"/>
</radialGradient>
<radialGradient id="paint10_radial_315_2682" cx="0" cy="0" r="1" gradientUnits="userSpaceOnUse" gradientTransform="translate(14.5312 13.786) rotate(90.3923) scale(22.2388 23.4409)">
<stop stop-color="#8DC180" stop-opacity="0.58"/>
<stop offset="1" stop-color="#3E5227"/>
</radialGradient>
<radialGradient id="paint11_radial_315_2682" cx="0" cy="0" r="1" gradientUnits="userSpaceOnUse" gradientTransform="translate(338.638 472.681) rotate(90) scale(25.5)">
<stop stop-color="#F7505A"/>
<stop offset="1" stop-color="#F40816" stop-opacity="0.62"/>
</radialGradient>
<radialGradient id="paint12_radial_315_2682" cx="0" cy="0" r="1" gradientUnits="userSpaceOnUse" gradientTransform="translate(369.957 473) rotate(-1.63658) scale(17.5071 12.106)">
<stop stop-color="#F7505A"/>
<stop offset="0.995353" stop-color="#F40816" stop-opacity="0.73"/>
</radialGradient>
<radialGradient id="paint13_radial_315_2682" cx="0" cy="0" r="1" gradientUnits="userSpaceOnUse" gradientTransform="translate(381.734 471.449) rotate(90.4076) scale(6.375 7.03448)">
<stop stop-color="#F7505A"/>
<stop offset="1" stop-color="#F40816" stop-opacity="0.73"/>
</radialGradient>
<radialGradient id="paint14_radial_315_2682" cx="0" cy="0" r="1" gradientUnits="userSpaceOnUse" gradientTransform="translate(290.957 206) rotate(90) scale(50)">
<stop stop-color="#2DA5E8"/>
<stop offset="0.942708" stop-color="#116A9C"/>
</radialGradient>
<radialGradient id="paint15_radial_315_2682" cx="0" cy="0" r="1" gradientUnits="userSpaceOnUse" gradientTransform="translate(173.777 440.244) rotate(90) scale(23.2438 21.82)">
<stop stop-color="#F7505A"/>
<stop offset="1" stop-color="#F40816" stop-opacity="0.73"/>
</radialGradient>
<radialGradient id="paint16_radial_315_2682" cx="0" cy="0" r="1" gradientUnits="userSpaceOnUse" gradientTransform="translate(213.156 444.819) rotate(90) scale(18.6682 15.8007)">
<stop stop-color="#F7505A"/>
<stop offset="1" stop-color="#F40816" stop-opacity="0.73"/>
</radialGradient>
<radialGradient id="paint17_radial_315_2682" cx="0" cy="0" r="1" gradientUnits="userSpaceOnUse" gradientTransform="translate(208.832 479.309) rotate(90) scale(17.8786 11.375)">
<stop stop-color="#F7505A"/>
<stop offset="1" stop-color="#F40816" stop-opacity="0.73"/>
</radialGradient>
<radialGradient id="paint18_radial_315_2682" cx="0" cy="0" r="1" gradientUnits="userSpaceOnUse" gradientTransform="translate(178.645 481.278) rotate(90) scale(15.7502 17.0625)">
<stop stop-color="#F7505A"/>
<stop offset="1" stop-color="#F40816" stop-opacity="0.73"/>
</radialGradient>
<radialGradient id="paint19_radial_315_2682" cx="0" cy="0" r="1" gradientUnits="userSpaceOnUse" gradientTransform="translate(139.558 416.333) rotate(146.231) scale(6.375 7.03448)">
<stop stop-color="#116A9C"/>
<stop offset="1" stop-color="#2DA5E8" stop-opacity="0.95"/>
</radialGradient>
<radialGradient id="paint20_radial_315_2682" cx="0" cy="0" r="1" gradientUnits="userSpaceOnUse" gradientTransform="translate(112.426 381.75) rotate(75.6089) scale(57.717)">
<stop stop-color="#2DA5E8"/>
<stop offset="0.469222" stop-color="#116A9C" stop-opacity="0.95"/>
</radialGradient>
<radialGradient id="paint21_radial_315_2682" cx="0" cy="0" r="1" gradientUnits="userSpaceOnUse" gradientTransform="translate(132.047 407.473) rotate(146.231) scale(10.3319 7.1444)">
<stop stop-color="#2DA5E8"/>
<stop offset="1" stop-color="#116A9C" stop-opacity="0.95"/>
</radialGradient>
<radialGradient id="paint22_radial_315_2682" cx="0" cy="0" r="1" gradientUnits="userSpaceOnUse" gradientTransform="translate(101.957 470.824) rotate(90) scale(30.0374 41)">
<stop stop-color="#F7D317"/>
<stop offset="0.932292" stop-color="#F8A503" stop-opacity="0.97"/>
</radialGradient>
<radialGradient id="paint23_radial_315_2682" cx="0" cy="0" r="1" gradientUnits="userSpaceOnUse" gradientTransform="translate(110.837 437.644) rotate(110.054) scale(10.9626 4.28509)">
<stop stop-color="#F7D317"/>
<stop offset="0.932292" stop-color="#F8A503" stop-opacity="0.97"/>
</radialGradient>
<radialGradient id="paint24_radial_315_2682" cx="0" cy="0" r="1" gradientUnits="userSpaceOnUse" gradientTransform="translate(101.663 437.649) rotate(65.7431) scale(10.9626 2.19251)">
<stop stop-color="#F7D317"/>
<stop offset="0.932292" stop-color="#F8A503" stop-opacity="0.97"/>
</radialGradient>
<radialGradient id="paint25_radial_315_2682" cx="0" cy="0" r="1" gradientUnits="userSpaceOnUse" gradientTransform="translate(189.957 325.5) rotate(-131.771) scale(69.0525 94.2542)">
<stop offset="0.221811" stop-color="#2DA5E8"/>
<stop offset="1" stop-color="#116A9C" stop-opacity="0.95"/>
</radialGradient>
<radialGradient id="paint26_radial_315_2682" cx="0" cy="0" r="1" gradientUnits="userSpaceOnUse" gradientTransform="translate(164.833 274.418) rotate(110.054) scale(12.5 4.88605)">
<stop stop-color="#2DA5E8"/>
<stop offset="1" stop-color="#116A9C" stop-opacity="0.95"/>
</radialGradient>
<radialGradient id="paint27_radial_315_2682" cx="0" cy="0" r="1" gradientUnits="userSpaceOnUse" gradientTransform="translate(154.372 274.424) rotate(65.7431) scale(12.5 2.5)">
<stop stop-color="#2DA5E8"/>
<stop offset="1" stop-color="#116A9C" stop-opacity="0.95"/>
</radialGradient>
<radialGradient id="paint28_radial_315_2682" cx="0" cy="0" r="1" gradientUnits="userSpaceOnUse" gradientTransform="translate(271.957 464) rotate(90) scale(43)">
<stop stop-color="#2DA5E8"/>
<stop offset="1" stop-color="#116A9C" stop-opacity="0.95"/>
</radialGradient>
<radialGradient id="paint29_radial_315_2682" cx="0" cy="0" r="1" gradientUnits="userSpaceOnUse" gradientTransform="translate(304.457 375) rotate(25.887) scale(37.7922 34.5189)">
<stop stop-color="#F7D317" stop-opacity="0.99"/>
<stop offset="0.932292" stop-color="#F8A503" stop-opacity="0.97"/>
</radialGradient>
<radialGradient id="paint30_radial_315_2682" cx="0" cy="0" r="1" gradientUnits="userSpaceOnUse" gradientTransform="translate(341.957 355) rotate(62.354) scale(35.5598 29.2846)">
<stop stop-color="#F7D317"/>
<stop offset="0.861826" stop-color="#F8A503" stop-opacity="0.97"/>
</radialGradient>
<radialGradient id="paint31_radial_315_2682" cx="0" cy="0" r="1" gradientUnits="userSpaceOnUse" gradientTransform="translate(358.184 398.879) rotate(24.2835) scale(45.2793 28.7712)">
<stop stop-color="#F7D317"/>
<stop offset="0.932292" stop-color="#F8A503" stop-opacity="0.97"/>
</radialGradient>
<radialGradient id="paint32_radial_315_2682" cx="0" cy="0" r="1" gradientUnits="userSpaceOnUse" gradientTransform="translate(321.255 426.697) rotate(48.2792) scale(38.0666 40.3058)">
<stop stop-color="#F7D317"/>
<stop offset="0.932292" stop-color="#F8A503" stop-opacity="0.97"/>
</radialGradient>
<radialGradient id="paint33_radial_315_2682" cx="0" cy="0" r="1" gradientUnits="userSpaceOnUse" gradientTransform="translate(182.089 634.318) rotate(90) scale(47.5877 19.1321)">
<stop stop-color="#F7D317"/>
<stop offset="0.932292" stop-color="#F8A503" stop-opacity="0.97"/>
</radialGradient>
<radialGradient id="paint34_radial_315_2682" cx="0" cy="0" r="1" gradientUnits="userSpaceOnUse" gradientTransform="translate(222.561 634.318) rotate(90) scale(47.5877 18.3962)">
<stop stop-color="#F7D317"/>
<stop offset="0.932292" stop-color="#F8A503" stop-opacity="0.97"/>
</radialGradient>
<radialGradient id="paint35_radial_315_2682" cx="0" cy="0" r="1" gradientUnits="userSpaceOnUse" gradientTransform="translate(191.957 111) rotate(61.6992) scale(7.38241 8.14611)">
<stop stop-color="#8DC180"/>
<stop offset="1" stop-color="#3E5227"/>
</radialGradient>
<radialGradient id="paint36_radial_315_2682" cx="0" cy="0" r="1" gradientUnits="userSpaceOnUse" gradientTransform="translate(154.666 132.979) rotate(96.9801) scale(30.4138)">
<stop stop-color="#8DC180"/>
<stop offset="1" stop-color="#3E5227"/>
</radialGradient>
<radialGradient id="paint37_radial_315_2682" cx="0" cy="0" r="1" gradientUnits="userSpaceOnUse" gradientTransform="translate(181.957 117) rotate(62.4472) scale(12.9711 8.96939)">
<stop stop-color="#8DC180"/>
<stop offset="1" stop-color="#3E5227"/>
</radialGradient>
<radialGradient id="paint38_radial_315_2682" cx="0" cy="0" r="1" gradientUnits="userSpaceOnUse" gradientTransform="translate(303.298 292.226) rotate(90) scale(25.5)">
<stop offset="0.108595" stop-color="#F7505A"/>
<stop offset="0.982171" stop-color="#F40816" stop-opacity="0.73"/>
</radialGradient>
<radialGradient id="paint39_radial_315_2682" cx="0" cy="0" r="1" gradientUnits="userSpaceOnUse" gradientTransform="translate(298.614 261.03) rotate(-8.14079) scale(10.3319 7.1444)">
<stop stop-color="#F7505A"/>
<stop offset="1" stop-color="#F40816" stop-opacity="0.73"/>
</radialGradient>
<radialGradient id="paint40_radial_315_2682" cx="0" cy="0" r="1" gradientUnits="userSpaceOnUse" gradientTransform="translate(295.674 249.792) rotate(-8.14079) scale(6.375 7.03448)">
<stop stop-color="#F7505A"/>
<stop offset="1" stop-color="#F40816" stop-opacity="0.73"/>
</radialGradient>
<radialGradient id="paint41_radial_315_2682" cx="0" cy="0" r="1" gradientUnits="userSpaceOnUse" gradientTransform="translate(54.457 417) rotate(-14.2068) scale(40.7462 44.9613)">
<stop stop-color="#6B17C0"/>
<stop offset="1" stop-color="#E180DE"/>
</radialGradient>
<radialGradient id="paint42_radial_315_2682" cx="0" cy="0" r="1" gradientUnits="userSpaceOnUse" gradientTransform="translate(37.1582 450.404) rotate(91.1342) scale(25.5043)">
<stop offset="0.130208" stop-color="#E180DE" stop-opacity="0.98"/>
<stop offset="1" stop-color="#6B17C0"/>
</radialGradient>
<radialGradient id="paint43_radial_315_2682" cx="0" cy="0" r="1" gradientUnits="userSpaceOnUse" gradientTransform="translate(55.957 425) rotate(34.992) scale(12.2066 8.4407)">
<stop stop-color="#E180DE" stop-opacity="0.7"/>
<stop offset="1" stop-color="#6B17C0"/>
</radialGradient>
<radialGradient id="paint44_radial_315_2682" cx="0" cy="0" r="1" gradientUnits="userSpaceOnUse" gradientTransform="translate(245.207 322.058) rotate(90.3152) scale(45.4422 45.1911)">
<stop stop-color="#2DA5E8"/>
<stop offset="1" stop-color="#116A9C" stop-opacity="0.95"/>
</radialGradient>
<radialGradient id="paint45_radial_315_2682" cx="0" cy="0" r="1" gradientUnits="userSpaceOnUse" gradientTransform="translate(251.388 289.356) rotate(104.23) scale(11.222 3.24485)">
<stop stop-color="#2DA5E8"/>
<stop offset="1" stop-color="#116A9C" stop-opacity="0.95"/>
</radialGradient>
<radialGradient id="paint46_radial_315_2682" cx="0" cy="0" r="1" gradientUnits="userSpaceOnUse" gradientTransform="translate(244.655 289.362) rotate(72.617) scale(11.0627 1.68418)">
<stop stop-color="#2DA5E8"/>
<stop offset="1" stop-color="#116A9C" stop-opacity="0.95"/>
</radialGradient>
<radialGradient id="paint47_radial_315_2682" cx="0" cy="0" r="1" gradientUnits="userSpaceOnUse" gradientTransform="translate(329.957 518) rotate(90) scale(43 39.2756)">
<stop stop-color="#8DC180" stop-opacity="0.86"/>
<stop offset="0.859675" stop-color="#3E5227"/>
</radialGradient>
<radialGradient id="paint48_radial_315_2682" cx="0" cy="0" r="1" gradientUnits="userSpaceOnUse" gradientTransform="translate(365.79 528.085) rotate(58.2747) scale(26.9409 22.1866)">
<stop stop-color="#8DC180" stop-opacity="0.71"/>
<stop offset="1" stop-color="#3E5227"/>
</radialGradient>
<radialGradient id="paint49_radial_315_2682" cx="0" cy="0" r="1" gradientUnits="userSpaceOnUse" gradientTransform="translate(361.957 561.5) rotate(90) scale(21 13)">
<stop stop-color="#8DC180" stop-opacity="0.74"/>
<stop offset="1" stop-color="#3E5227"/>
</radialGradient>
<radialGradient id="paint50_radial_315_2682" cx="0" cy="0" r="1" gradientUnits="userSpaceOnUse" gradientTransform="translate(334.305 562.27) rotate(90.8053) scale(24.7327 26.0696)">
<stop stop-color="#8DC180" stop-opacity="0.67"/>
<stop offset="1" stop-color="#3E5227"/>
</radialGradient>
<radialGradient id="paint51_radial_315_2682" cx="0" cy="0" r="1" gradientUnits="userSpaceOnUse" gradientTransform="translate(221.957 99.5) rotate(82.9374) scale(56.932 52.0009)">
<stop stop-color="#E180DE" stop-opacity="0.9"/>
<stop offset="0.987418" stop-color="#6B17C0" stop-opacity="0.93"/>
</radialGradient>
<radialGradient id="paint52_radial_315_2682" cx="0" cy="0" r="1" gradientUnits="userSpaceOnUse" gradientTransform="translate(277.457 124.5) rotate(144.881) scale(55.626 45.8098)">
<stop stop-color="#E180DE" stop-opacity="0.74"/>
<stop offset="1" stop-color="#6B17C0"/>
</radialGradient>
<radialGradient id="paint53_radial_315_2682" cx="0" cy="0" r="1" gradientUnits="userSpaceOnUse" gradientTransform="translate(231.457 153) rotate(73.457) scale(52.6806 33.4744)">
<stop stop-color="#C36CC0"/>
<stop offset="1" stop-color="#6B17C0" stop-opacity="0.93"/>
</radialGradient>
<radialGradient id="paint54_radial_315_2682" cx="0" cy="0" r="1" gradientUnits="userSpaceOnUse" gradientTransform="translate(225.147 142.666) rotate(135.515) scale(43.8207 46.3982)">
<stop stop-color="#BD74BB"/>
<stop offset="0.760038" stop-color="#6B17C0"/>
</radialGradient>
<radialGradient id="paint55_radial_315_2682" cx="0" cy="0" r="1" gradientUnits="userSpaceOnUse" gradientTransform="translate(178.844 380.798) rotate(-89.606) scale(33.3204 12.9249)">
<stop stop-color="#F7D317" stop-opacity="0.85"/>
<stop offset="1" stop-color="#F8A503" stop-opacity="0.97"/>
</radialGradient>
<radialGradient id="paint56_radial_315_2682" cx="0" cy="0" r="1" gradientUnits="userSpaceOnUse" gradientTransform="translate(186.247 385.826) rotate(113.117) scale(45.3125 17.5767)">
<stop stop-color="#F7D317" stop-opacity="0.91"/>
<stop offset="0.744792" stop-color="#F8A503" stop-opacity="0.97"/>
</radialGradient>
<radialGradient id="paint57_radial_315_2682" cx="0" cy="0" r="1" gradientUnits="userSpaceOnUse" gradientTransform="translate(276.014 398.525) rotate(113.665) scale(7.61499 8.40275)">
<stop offset="0.588373" stop-color="#8DC180"/>
<stop offset="1" stop-color="#3E5227"/>
</radialGradient>
<radialGradient id="paint58_radial_315_2682" cx="0" cy="0" r="1" gradientUnits="userSpaceOnUse" gradientTransform="translate(235.1 384.929) rotate(94.5471) scale(28.7598)">
<stop stop-color="#8DC180"/>
<stop offset="1" stop-color="#3E5227"/>
</radialGradient>
<radialGradient id="paint59_radial_315_2682" cx="0" cy="0" r="1" gradientUnits="userSpaceOnUse" gradientTransform="translate(264.957 395) rotate(-64.5367) scale(11.6297 8.04182)">
<stop stop-color="#8DC180"/>
<stop offset="1" stop-color="#3E5227"/>
</radialGradient>
<radialGradient id="paint60_radial_315_2682" cx="0" cy="0" r="1" gradientUnits="userSpaceOnUse" gradientTransform="translate(31.957 544.812) rotate(90) scale(32.5 14)">
<stop stop-color="#F7505A"/>
<stop offset="1" stop-color="#F40816" stop-opacity="0.73"/>
</radialGradient>
<radialGradient id="paint61_radial_315_2682" cx="0" cy="0" r="1" gradientUnits="userSpaceOnUse" gradientTransform="translate(62.457 544.812) rotate(90) scale(32.5 14.5)">
<stop stop-color="#F7505A"/>
<stop offset="1" stop-color="#F40816" stop-opacity="0.73"/>
</radialGradient>
<radialGradient id="paint62_radial_315_2682" cx="0" cy="0" r="1" gradientUnits="userSpaceOnUse" gradientTransform="translate(39.5964 500.435) rotate(63.0014) scale(12.6646 6.65428)">
<stop stop-color="#F7505A"/>
<stop offset="1" stop-color="#F40816" stop-opacity="0.73"/>
</radialGradient>
<radialGradient id="paint63_radial_315_2682" cx="0" cy="0" r="1" gradientUnits="userSpaceOnUse" gradientTransform="translate(48.8401 496.515) rotate(109.725) scale(15.1588 6.65428)">
<stop stop-color="#F7505A"/>
<stop offset="1" stop-color="#F40816" stop-opacity="0.73"/>
</radialGradient>
<linearGradient id="paint64_linear_315_2682" x1="53.9562" y1="482.246" x2="43.7239" y2="510.785" gradientUnits="userSpaceOnUse">
<stop stop-color="#DF2E38"/>
<stop offset="1" stop-color="#DF2E38" stop-opacity="0"/>
</linearGradient>
<radialGradient id="paint65_radial_315_2682" cx="0" cy="0" r="1" gradientUnits="userSpaceOnUse" gradientTransform="translate(83.957 286) rotate(90) scale(34)">
<stop offset="0.0222765" stop-color="#E180DE"/>
<stop offset="1" stop-color="#6B17C0" stop-opacity="0.69"/>
</radialGradient>
<radialGradient id="paint66_radial_315_2682" cx="0" cy="0" r="1" gradientUnits="userSpaceOnUse" gradientTransform="translate(204.957 44.5) rotate(90) scale(55.5)">
<stop stop-color="#FCF31E"/>
<stop offset="1" stop-color="#F3A610"/>
</radialGradient>
<radialGradient id="paint67_radial_315_2682" cx="0" cy="0" r="1" gradientUnits="userSpaceOnUse" gradientTransform="translate(200.401 234.238) rotate(90.4191) scale(60.7639 23.5702)">
<stop stop-color="#F7D317"/>
<stop offset="0.932292" stop-color="#F8A503" stop-opacity="0.97"/>
</radialGradient>
<radialGradient id="paint68_radial_315_2682" cx="0" cy="0" r="1" gradientUnits="userSpaceOnUse" gradientTransform="translate(231.401 234.238) rotate(90.4057) scale(62.7639 24.346)">
<stop stop-color="#F7D317"/>
<stop offset="0.932292" stop-color="#F8A503" stop-opacity="0.97"/>
</radialGradient>
<radialGradient id="paint69_radial_315_2682" cx="0" cy="0" r="1" gradientUnits="userSpaceOnUse" gradientTransform="translate(200.401 234.238) rotate(90.4191) scale(60.7639 23.5702)">
<stop stop-color="#F7D317"/>
<stop offset="0.932292" stop-color="#F8A503" stop-opacity="0.97"/>
</radialGradient>
<radialGradient id="paint70_radial_315_2682" cx="0" cy="0" r="1" gradientUnits="userSpaceOnUse" gradientTransform="translate(231.401 234.238) rotate(90.4057) scale(62.7639 24.346)">
<stop stop-color="#F7D317"/>
<stop offset="0.932292" stop-color="#F8A503" stop-opacity="0.97"/>
</radialGradient>
</defs>
</svg>
